<?xml version="1.0" encoding="UTF-8" standalone="no"?>
<svg width="200" height="200" viewBox="0 0 200 200" fill="none" xmlns="http://www.w3.org/2000/svg">
    <defs>
        <linearGradient id="baresdev-gradient" x1="0%" y1="0%" x2="100%" y2="100%">
            <stop offset="0%" style="stop-color:#00D4FF;stop-opacity:1" />
            <stop offset="100%" style="stop-color:#0066FF;stop-opacity:1" />
        </linearGradient>
    </defs>

    <!-- Background circle -->
    <circle cx="100" cy="100" r="95" fill="#0D1B2A"/>

    <!-- Outer ring -->
    <circle cx="100" cy="100" r="85" fill="none" stroke="url(#baresdev-gradient)" stroke-width="3" opacity="0.3"/>

    <!-- Letter B with modern design -->
    <g transform="translate(45, 50)">
        <!-- Main B shape -->
        <path d="M0 0 L0 100 L50 100 C65 100 75 90 75 75 C75 65 70 57 62 53 C68 49 72 42 72 33 C72 18 62 0 45 0 Z
                 M15 15 L40 15 C48 15 55 22 55 30 C55 38 48 42 40 42 L15 42 Z
                 M15 57 L45 57 C53 57 60 64 60 72 C60 80 53 85 45 85 L15 85 Z"
              fill="url(#baresdev-gradient)"/>
    </g>

    <!-- Code symbol decoration -->
    <g transform="translate(125, 70)">
        <path d="M0 15 L15 0 L15 5 L5 15 L15 25 L15 30 Z" fill="#00D4FF" opacity="0.6"/>
        <path d="M25 0 L25 5 L35 15 L25 25 L25 30 L40 15 Z" fill="#00D4FF" opacity="0.6"/>
    </g>

    <!-- Dev indicator dots -->
    <circle cx="130" cy="130" r="4" fill="#00D4FF"/>
    <circle cx="145" cy="130" r="4" fill="#0088FF"/>
    <circle cx="160" cy="130" r="4" fill="#0066FF"/>
</svg>
