<svg width="800" height="600" viewBox="0 0 800 600" xmlns="http://www.w3.org/2000/svg">
  <defs>
    <linearGradient id="screen-bg" x1="0%" y1="0%" x2="0%" y2="100%">
      <stop offset="0%" style="stop-color:#1E3A8A"/>
      <stop offset="100%" style="stop-color:#1E40AF"/>
    </linearGradient>
  </defs>

  <!-- Browser Window -->
  <rect width="800" height="600" fill="#F3F4F6"/>

  <!-- Browser Chrome -->
  <rect width="800" height="50" fill="#E5E7EB"/>
  <circle cx="20" cy="25" r="6" fill="#EF4444"/>
  <circle cx="40" cy="25" r="6" fill="#F59E0B"/>
  <circle cx="60" cy="25" r="6" fill="#10B981"/>

  <!-- URL Bar -->
  <rect x="100" y="15" width="600" height="20" rx="10" fill="#FFFFFF" stroke="#D1D5DB" stroke-width="1"/>
  <text x="120" y="29" font-family="Arial, sans-serif" font-size="12" fill="#6B7280">https://shop.example.com</text>

  <!-- Header -->
  <rect y="50" width="800" height="60" fill="#FFFFFF"/>
  <text x="40" y="88" font-family="Arial, sans-serif" font-size="24" font-weight="bold" fill="#1F2937">ShopHub</text>

  <!-- Navigation -->
  <text x="200" y="88" font-family="Arial, sans-serif" font-size="14" fill="#4B5563">Home</text>
  <text x="270" y="88" font-family="Arial, sans-serif" font-size="14" fill="#4B5563">Products</text>
  <text x="360" y="88" font-family="Arial, sans-serif" font-size="14" fill="#4B5563">Categories</text>
  <text x="470" y="88" font-family="Arial, sans-serif" font-size="14" fill="#4B5563">Deals</text>

  <!-- Search Bar -->
  <rect x="570" y="73" width="180" height="30" rx="15" fill="#F3F4F6" stroke="#D1D5DB" stroke-width="1"/>
  <text x="590" y="93" font-family="Arial, sans-serif" font-size="12" fill="#9CA3AF">Search products...</text>

  <!-- Shopping Cart Icon -->
  <circle cx="770" cy="88" r="12" fill="#3B82F6"/>
  <text x="765" y="92" font-family="Arial, sans-serif" font-size="14" fill="#FFFFFF">🛒</text>
  <circle cx="775" cy="80" r="8" fill="#EF4444"/>
  <text x="772" y="84" font-family="Arial, sans-serif" font-size="10" fill="#FFFFFF" font-weight="bold">3</text>

  <!-- Hero Banner -->
  <rect y="110" width="800" height="150" fill="url(#screen-bg)"/>
  <text x="400" y="165" font-family="Arial, sans-serif" font-size="32" font-weight="bold" fill="#FFFFFF" text-anchor="middle">Summer Sale 2024</text>
  <text x="400" y="200" font-family="Arial, sans-serif" font-size="18" fill="#E0E7FF" text-anchor="middle">Up to 50% off on selected items</text>
  <rect x="350" y="215" width="100" height="35" rx="8" fill="#FFFFFF"/>
  <text x="400" y="238" font-family="Arial, sans-serif" font-size="14" font-weight="bold" fill="#1E3A8A" text-anchor="middle">Shop Now</text>

  <!-- Product Grid -->
  <!-- Product 1 -->
  <g>
    <rect x="40" y="290" width="170" height="260" rx="8" fill="#FFFFFF" stroke="#E5E7EB" stroke-width="2"/>
    <rect x="50" y="300" width="150" height="150" rx="4" fill="#F3F4F6"/>
    <text x="125" y="380" font-family="Arial, sans-serif" font-size="40" text-anchor="middle">👕</text>
    <text x="125" y="470" font-family="Arial, sans-serif" font-size="14" font-weight="bold" fill="#1F2937" text-anchor="middle">T-Shirt</text>
    <text x="125" y="490" font-family="Arial, sans-serif" font-size="12" fill="#6B7280" text-anchor="middle">Premium Cotton</text>
    <text x="125" y="515" font-family="Arial, sans-serif" font-size="18" font-weight="bold" fill="#3B82F6" text-anchor="middle">$29.99</text>
    <rect x="70" y="525" width="110" height="20" rx="4" fill="#3B82F6"/>
    <text x="125" y="539" font-family="Arial, sans-serif" font-size="11" fill="#FFFFFF" text-anchor="middle" font-weight="bold">Add to Cart</text>
  </g>

  <!-- Product 2 -->
  <g>
    <rect x="230" y="290" width="170" height="260" rx="8" fill="#FFFFFF" stroke="#E5E7EB" stroke-width="2"/>
    <rect x="240" y="300" width="150" height="150" rx="4" fill="#F3F4F6"/>
    <text x="315" y="380" font-family="Arial, sans-serif" font-size="40" text-anchor="middle">👟</text>
    <text x="315" y="470" font-family="Arial, sans-serif" font-size="14" font-weight="bold" fill="#1F2937" text-anchor="middle">Sneakers</text>
    <text x="315" y="490" font-family="Arial, sans-serif" font-size="12" fill="#6B7280" text-anchor="middle">Running Shoes</text>
    <text x="315" y="515" font-family="Arial, sans-serif" font-size="18" font-weight="bold" fill="#3B82F6" text-anchor="middle">$89.99</text>
    <rect x="260" y="525" width="110" height="20" rx="4" fill="#3B82F6"/>
    <text x="315" y="539" font-family="Arial, sans-serif" font-size="11" fill="#FFFFFF" text-anchor="middle" font-weight="bold">Add to Cart</text>
  </g>

  <!-- Product 3 -->
  <g>
    <rect x="420" y="290" width="170" height="260" rx="8" fill="#FFFFFF" stroke="#E5E7EB" stroke-width="2"/>
    <rect x="430" y="300" width="150" height="150" rx="4" fill="#F3F4F6"/>
    <text x="505" y="380" font-family="Arial, sans-serif" font-size="40" text-anchor="middle">⌚</text>
    <text x="505" y="470" font-family="Arial, sans-serif" font-size="14" font-weight="bold" fill="#1F2937" text-anchor="middle">Smart Watch</text>
    <text x="505" y="490" font-family="Arial, sans-serif" font-size="12" fill="#6B7280" text-anchor="middle">Fitness Tracker</text>
    <text x="505" y="515" font-family="Arial, sans-serif" font-size="18" font-weight="bold" fill="#3B82F6" text-anchor="middle">$199.99</text>
    <rect x="450" y="525" width="110" height="20" rx="4" fill="#3B82F6"/>
    <text x="505" y="539" font-family="Arial, sans-serif" font-size="11" fill="#FFFFFF" text-anchor="middle" font-weight="bold">Add to Cart</text>
  </g>

  <!-- Product 4 -->
  <g>
    <rect x="610" y="290" width="170" height="260" rx="8" fill="#FFFFFF" stroke="#E5E7EB" stroke-width="2"/>
    <rect x="620" y="300" width="150" height="150" rx="4" fill="#F3F4F6"/>
    <text x="695" y="380" font-family="Arial, sans-serif" font-size="40" text-anchor="middle">🎧</text>
    <text x="695" y="470" font-family="Arial, sans-serif" font-size="14" font-weight="bold" fill="#1F2937" text-anchor="middle">Headphones</text>
    <text x="695" y="490" font-family="Arial, sans-serif" font-size="12" fill="#6B7280" text-anchor="middle">Noise Cancelling</text>
    <text x="695" y="515" font-family="Arial, sans-serif" font-size="18" font-weight="bold" fill="#3B82F6" text-anchor="middle">$149.99</text>
    <rect x="640" y="525" width="110" height="20" rx="4" fill="#3B82F6"/>
    <text x="695" y="539" font-family="Arial, sans-serif" font-size="11" fill="#FFFFFF" text-anchor="middle" font-weight="bold">Add to Cart</text>
  </g>

  <!-- Footer Badge -->
  <rect x="20" y="565" width="200" height="25" rx="12" fill="#10B981" opacity="0.9"/>
  <text x="120" y="582" font-family="Arial, sans-serif" font-size="12" fill="#FFFFFF" text-anchor="middle" font-weight="bold">React + Node.js + PostgreSQL</text>
</svg>
