<?xml version="1.0" encoding="UTF-8" standalone="no"?>
<svg width="256" height="256" viewBox="0 0 256 256" fill="none" xmlns="http://www.w3.org/2000/svg">
    <defs>
        <linearGradient id="python-gradient1" x1="0%" y1="0%" x2="100%" y2="100%">
            <stop offset="0%" style="stop-color:#3776AB;stop-opacity:1" />
            <stop offset="100%" style="stop-color:#2D5D87;stop-opacity:1" />
        </linearGradient>
        <linearGradient id="python-gradient2" x1="0%" y1="100%" x2="100%" y2="0%">
            <stop offset="0%" style="stop-color:#FFD43B;stop-opacity:1" />
            <stop offset="100%" style="stop-color:#FFC331;stop-opacity:1" />
        </linearGradient>
    </defs>

    <!-- Background -->
    <rect width="256" height="256" fill="#FFFFFF" rx="20"/>

    <!-- Python logo top (blue) -->
    <path d="M128 50 L170 50 C185 50 190 55 190 70 L190 110 L130 110 L130 115 L190 115 L190 128 L130 128 C115 128 110 123 110 108 L110 70 L128 70 L128 50 Z"
          fill="url(#python-gradient1)"/>

    <!-- Python logo bottom (yellow) -->
    <path d="M128 206 L86 206 C71 206 66 201 66 186 L66 146 L126 146 L126 141 L66 141 L66 128 L126 128 C141 128 146 133 146 148 L146 186 L128 186 L128 206 Z"
          fill="url(#python-gradient2)"/>

    <!-- Eyes -->
    <circle cx="150" cy="80" r="6" fill="white"/>
    <circle cx="106" cy="176" r="6" fill="#3776AB"/>
</svg>
