<?xml version="1.0" encoding="UTF-8" standalone="no"?>
<svg width="256" height="256" viewBox="0 0 256 256" fill="none" xmlns="http://www.w3.org/2000/svg">
    <defs>
        <linearGradient id="spring-gradient" x1="0%" y1="0%" x2="100%" y2="100%">
            <stop offset="0%" style="stop-color:#6DB33F;stop-opacity:1" />
            <stop offset="100%" style="stop-color:#5A9F2E;stop-opacity:1" />
        </linearGradient>
    </defs>

    <!-- Background -->
    <rect width="256" height="256" fill="#FFFFFF" rx="20"/>

    <!-- Spring leaf shape -->
    <path d="M180 80 Q200 100 190 130 Q185 145 170 155 Q145 170 120 165 Q90 160 75 140 Q60 120 70 95 Q75 85 85 78 Q100 68 120 70 Q140 72 155 85 L140 100 Q130 92 118 92 Q105 92 98 102 Q92 112 95 125 Q98 138 110 145 Q122 152 138 148 Q154 144 163 132 Q170 120 165 108 Z"
          fill="url(#spring-gradient)"/>

    <!-- Small circle accent -->
    <circle cx="175" cy="95" r="8" fill="url(#spring-gradient)"/>
</svg>
