<svg width="800" height="600" viewBox="0 0 800 600" xmlns="http://www.w3.org/2000/svg">
  <!-- Background -->
  <rect width="800" height="600" fill="#F8FAFC"/>

  <!-- Mobile Phone Frame -->
  <rect x="250" y="50" width="300" height="500" rx="30" fill="#1E293B" stroke="#0F172A" stroke-width="8"/>
  <rect x="265" y="65" width="270" height="470" rx="20" fill="#FFFFFF"/>

  <!-- Status Bar -->
  <rect x="265" y="65" width="270" height="30" rx="20" fill="#0EA5E9"/>
  <text x="290" y="85" font-family="Arial, sans-serif" font-size="12" fill="#FFFFFF" font-weight="bold">9:41</text>
  <text x="500" y="85" font-family="Arial, sans-serif" font-size="12" fill="#FFFFFF">📶 🔋</text>

  <!-- App Header -->
  <rect x="265" y="95" width="270" height="60" fill="#0EA5E9"/>
  <text x="400" y="115" font-family="Arial, sans-serif" font-size="18" fill="#FFFFFF" text-anchor="middle" font-weight="bold">QuickBank</text>
  <text x="400" y="138" font-family="Arial, sans-serif" font-size="12" fill="#E0F2FE" text-anchor="middle">Digital Banking Made Easy</text>

  <!-- Balance Card -->
  <defs>
    <linearGradient id="cardGradient" x1="0%" y1="0%" x2="100%" y2="100%">
      <stop offset="0%" style="stop-color:#6366F1;stop-opacity:1"/>
      <stop offset="100%" style="stop-color:#8B5CF6;stop-opacity:1"/>
    </linearGradient>
  </defs>

  <rect x="285" y="170" width="230" height="120" rx="15" fill="url(#cardGradient)" filter="url(#shadow)"/>
  <text x="300" y="195" font-family="Arial, sans-serif" font-size="12" fill="#E0E7FF">Available Balance</text>
  <text x="300" y="230" font-family="Arial, sans-serif" font-size="32" fill="#FFFFFF" font-weight="bold">$12,458</text>
  <text x="300" y="255" font-family="Arial, sans-serif" font-size="11" fill="#DDD6FE">Account: ****3421</text>
  <circle cx="490" cy="270" r="15" fill="#FFFFFF" opacity="0.2"/>
  <circle cx="505" cy="260" r="15" fill="#FFFFFF" opacity="0.2"/>

  <!-- Quick Actions -->
  <text x="285" y="320" font-family="Arial, sans-serif" font-size="14" fill="#1E293B" font-weight="bold">Quick Actions</text>

  <!-- Action Buttons Grid -->
  <!-- Send Money -->
  <g>
    <rect x="285" y="335" width="105" height="85" rx="12" fill="#DBEAFE" stroke="#93C5FD" stroke-width="1"/>
    <text x="337" y="368" font-family="Arial, sans-serif" font-size="24" text-anchor="middle">💸</text>
    <text x="337" y="405" font-family="Arial, sans-serif" font-size="11" fill="#1E40AF" text-anchor="middle" font-weight="bold">Send Money</text>
  </g>

  <!-- Pay Bills -->
  <g>
    <rect x="410" y="335" width="105" height="85" rx="12" fill="#DCFCE7" stroke="#86EFAC" stroke-width="1"/>
    <text x="462" y="368" font-family="Arial, sans-serif" font-size="24" text-anchor="middle">📄</text>
    <text x="462" y="405" font-family="Arial, sans-serif" font-size="11" fill="#166534" text-anchor="middle" font-weight="bold">Pay Bills</text>
  </g>

  <!-- Mobile Top-Up -->
  <g>
    <rect x="285" y="435" width="105" height="85" rx="12" fill="#FEF3C7" stroke="#FCD34D" stroke-width="1"/>
    <text x="337" y="468" font-family="Arial, sans-serif" font-size="24" text-anchor="middle">📱</text>
    <text x="337" y="505" font-family="Arial, sans-serif" font-size="11" fill="#92400E" text-anchor="middle" font-weight="bold">Top-Up</text>
  </g>

  <!-- QR Pay -->
  <g>
    <rect x="410" y="435" width="105" height="85" rx="12" fill="#FCE7F3" stroke="#F9A8D4" stroke-width="1"/>
    <text x="462" y="468" font-family="Arial, sans-serif" font-size="24" text-anchor="middle">⚡</text>
    <text x="462" y="505" font-family="Arial, sans-serif" font-size="11" fill="#831843" text-anchor="middle" font-weight="bold">QR Pay</text>
  </g>

  <!-- Bottom Navigation -->
  <rect x="265" y="525" width="270" height="10" rx="0 0 20 20" fill="#F1F5F9"/>

  <!-- Feature Badge -->
  <rect x="300" y="560" width="200" height="22" rx="11" fill="#0EA5E9" opacity="0.9"/>
  <text x="400" y="575" font-family="Arial, sans-serif" font-size="11" fill="#FFFFFF" text-anchor="middle" font-weight="bold">React Native + Spring Boot + PostgreSQL</text>

  <defs>
    <filter id="shadow" x="-50%" y="-50%" width="200%" height="200%">
      <feDropShadow dx="0" dy="4" stdDeviation="8" flood-opacity="0.2"/>
    </filter>
  </defs>
</svg>
